<?xml version="1.0" encoding="UTF-8"?>
<svg width="112px" height="31px" viewBox="0 0 112 31" version="1.1" xmlns="http://www.w3.org/2000/svg" xmlns:xlink="http://www.w3.org/1999/xlink">
    <!-- Generator: Sketch 41.2 (35397) - http://www.bohemiancoding.com/sketch -->
    <title>Group 6</title>
    <desc>Created with Sketch.</desc>
    <defs></defs>
    <g id="Page-1" stroke="none" stroke-width="1" fill="none" fill-rule="evenodd">
        <g id="Input-amount" transform="translate(-132.000000, -19.000000)">
            <g id="Group-6" transform="translate(132.000000, 19.000000)">
                <path d="M98.0719937,28.3689631 C98.0719937,28.710229 98.251976,28.8808594 98.6119462,28.8808594 C98.9719164,28.8808594 99.2875778,28.7817837 99.5589399,28.5836293 C99.830302,28.3854749 100.087815,28.1102645 100.331487,27.7579901 C100.7413,27.1415097 101.206485,26.1507526 101.727057,24.7856889 L106.794304,11.5589489 C107.104432,10.7663313 107.259494,10.2434317 107.259494,9.99023438 C107.259494,9.73703709 107.193039,9.54438987 107.060127,9.41228693 C106.927215,9.280184 106.758308,9.17285198 106.553402,9.09028764 C106.348496,9.00772331 106.126979,8.93616863 105.888845,8.87562145 C105.650711,8.81507427 105.426425,8.74076749 105.215981,8.65269886 L105.215981,7.43075284 L111.396361,7.43075284 L111.396361,8.20685369 C111.396361,8.47105956 111.310523,8.65820257 111.138845,8.76828835 C110.967167,8.87837413 110.765033,8.98570615 110.532437,9.09028764 C110.299841,9.19486913 110.06171,9.33522639 109.818038,9.51136364 C109.574366,9.68750088 109.380539,9.9682154 109.236551,10.3535156 L103.238924,25.8755327 C102.596516,27.5378279 101.843359,28.8010433 100.97943,29.6652166 C100.115502,30.52939 99.0411457,30.9614702 97.7563291,30.9614702 C96.5711966,30.9614702 95.6408262,30.6202094 94.9651899,29.9376776 C94.3560096,29.29918 94.0514241,28.5285912 94.0514241,27.6258878 C94.0514241,26.4369614 94.5442989,25.6223388 95.5300633,25.1819957 C95.8512674,25.0498928 96.1863115,24.9838423 96.5352057,24.9838423 C96.8840998,24.9838423 97.1859164,25.0361323 97.4406646,25.1407138 C97.6954127,25.2452953 97.9224674,25.3801483 98.1218354,25.545277 C98.5205716,25.9085601 98.7199367,26.2745898 98.7199367,26.6433771 C98.7199367,27.0121645 98.6867092,27.2846227 98.6202532,27.4607599 C98.5537971,27.6368972 98.4790352,27.7827587 98.3959652,27.8983487 C98.3128952,28.0139388 98.2381332,28.1047582 98.1716772,28.1708097 C98.1052212,28.2368611 98.0719937,28.3029116 98.0719937,28.3689631 Z" id="Path" fill="#FFFFFF"></path>
                <path d="M100.912975,22.787642 L95.7958861,10.7002841 C95.3639219,9.73152925 94.7602887,9.13707496 93.9849684,8.91690341 C93.7856003,8.86186052 93.597311,8.78480163 93.4200949,8.68572443 L93.4200949,7.43075284 L102.890032,7.43075284 L102.890032,8.65269886 C102.746044,8.77379322 102.574368,8.85360421 102.375,8.89213423 C102.175632,8.93066426 101.981805,8.97745001 101.793513,9.0324929 C101.339396,9.18661299 101.112342,9.50585695 101.112342,9.99023438 C101.112342,10.2984746 101.2231,10.7167942 101.44462,11.245206 L103.438291,16.1660156 L100.912975,22.787642 Z" id="Path" fill="#F9F6F8"></path>
                <path d="M91.1273734,21.2519531 C91.1273734,21.8243992 91.3931935,22.2151978 91.9248418,22.4243608 C92.1463619,22.5124294 92.3844924,22.5894883 92.6392405,22.6555398 C92.8939886,22.7215912 93.1321191,22.8261712 93.3536392,22.9692827 L93.3536392,24.0261009 L84,24.0261009 L84,22.9692827 C84.2104441,22.8261712 84.4430367,22.7215912 84.6977848,22.6555398 C84.9525329,22.5894883 85.1906634,22.5124294 85.4121835,22.4243608 C85.9327558,22.2151978 86.193038,21.8243992 86.193038,21.2519531 L86.193038,2.87322443 C86.193038,2.28976981 85.9327558,1.88796275 85.4121835,1.66779119 C85.1906634,1.57972257 84.9525329,1.50541579 84.6977848,1.44486861 C84.4430367,1.38432143 84.2104441,1.28249361 84,1.1393821 L84,0 L91.1273734,0 L91.1273734,21.2519531 Z" id="Path" fill="#FFFFFF"></path>
                <path d="M80.4778481,21.2519531 C80.4778481,21.8243992 80.7436682,22.2151978 81.2753165,22.4243608 C81.4968366,22.5124294 81.7349671,22.5894883 81.9897152,22.6555398 C82.2444633,22.7215912 82.4825938,22.8261712 82.7041139,22.9692827 L82.7041139,24.0261009 L73.3504747,24.0261009 L73.3504747,22.9692827 C73.5609188,22.8261712 73.7935114,22.7215912 74.0482595,22.6555398 C74.3030076,22.5894883 74.5411381,22.5124294 74.7626582,22.4243608 C75.2832305,22.2151978 75.5435127,21.8243992 75.5435127,21.2519531 L75.5435127,2.87322443 C75.5435127,2.28976981 75.2832305,1.88796275 74.7626582,1.66779119 C74.5411381,1.57972257 74.3030076,1.50541579 74.0482595,1.44486861 C73.7935114,1.38432143 73.5609188,1.28249361 73.3504747,1.1393821 L73.3504747,0 L80.4778481,0 L80.4778481,21.2519531 Z" id="Path" fill="#F9F6F8"></path>
                <path d="M59.5110759,10.1388494 C60.2642443,10.4801153 60.6408228,10.9865023 60.6408228,11.6580256 C60.6408228,12.5056861 60.147948,13.0616109 59.1621835,13.3258168 C58.8852834,13.3918682 58.6083875,13.4248935 58.3314873,13.4248935 C57.522939,13.4248935 56.90823,13.199221 56.4873418,12.7478693 C56.0664536,12.2965176 55.8560127,11.7598575 55.8560127,11.1378729 C55.8560127,10.5158882 55.9778469,9.98198021 56.221519,9.53613281 C56.4651911,9.09028541 56.8251558,8.69123045 57.3014241,8.33895597 C58.3314925,7.60138126 59.7215102,7.18856578 61.471519,7.10049716 L61.471519,9.08203125 C60.5965146,9.13707414 59.9430401,9.48934334 59.5110759,10.1388494 Z" id="Path" fill="#F9F6F8"></path>
                <path d="M63.0166139,23.481179 C62.3852817,24.0095907 61.5573627,24.2737926 60.5328323,24.2737926 C59.5083018,24.2737926 58.6582312,24.177469 57.9825949,23.9848189 C57.3069586,23.7921688 56.7254771,23.5087022 56.2381329,23.1344105 C55.1859125,22.3197758 54.6598101,21.2024219 54.6598101,19.7823153 C54.6598101,18.1530458 55.424043,16.8650616 56.9525316,15.9183239 C58.0490561,15.235792 60.0703967,14.4982284 63.0166139,13.7056108 L63.0166139,15.4559659 C61.0450851,16.2265664 60.0593354,17.5806011 60.0593354,19.5181108 C60.0593354,20.7840972 60.3583831,21.6372492 60.9564873,22.0775923 C61.1669314,22.2207038 61.471517,22.2922585 61.8702532,22.2922585 C62.2689893,22.2922585 62.6511058,22.1656618 63.0166139,21.9124645 L63.0166139,23.481179 Z" id="Path" fill="#F9F6F8"></path>
                <path d="M68.2832278,24.2737926 C66.6107511,24.2737926 65.3481055,23.8940024 64.4952532,23.1344105 L64.4952532,13.3258168 C64.4952532,11.9167188 64.4343361,11.0030206 64.3125,10.5846946 C64.0909799,9.74804269 63.6368705,9.24715992 62.9501582,9.08203125 L62.9501582,7.10049716 C67.2808761,7.25461725 69.4462025,9.19209787 69.4462025,12.9129972 L69.4462025,20.3107244 C69.4462025,21.6317538 69.756326,22.2922585 70.3765823,22.2922585 C70.8860785,22.2922585 71.196202,21.6207454 71.306962,20.2776989 L72.5031646,20.574929 C72.2262644,22.4353786 71.4121903,23.5857577 70.0609177,24.0261009 C69.5735735,24.1912295 68.9810161,24.2737926 68.2832278,24.2737926 Z" id="Path" fill="#FFFFFF"></path>
                <path d="M46.3362342,24.2737926 C43.8552091,24.2517755 41.8117169,23.4261445 40.2056962,21.796875 C38.6772075,20.233657 37.9129747,18.2741595 37.9129747,15.9183239 C37.9129747,13.4083681 38.6550559,11.3442908 40.1392405,9.72602983 C41.6788052,8.06373459 43.7444491,7.18856578 46.3362342,7.10049716 L46.3362342,9.08203125 C45.3615458,9.34623712 44.6139267,10.0397671 44.0933544,11.162642 C43.5727822,12.285517 43.3125,13.7661485 43.3125,15.604581 C43.3125,18.3347083 43.860754,20.2831973 44.9572785,21.4501065 C45.3449386,21.8464153 45.8045859,22.1271299 46.3362342,22.2922585 L46.3362342,24.2737926 Z" id="Path" fill="#F9F6F8"></path>
                <path d="M47.8148734,22.2922585 C49.4098181,22.2592328 50.5395536,21.5381818 51.2041139,20.1290838 C51.414558,19.6887407 51.5862335,19.2098747 51.7191456,18.6924716 L53.2642405,19.3860085 C52.5775282,22.3142902 50.7610907,23.9435353 47.8148734,24.2737926 L47.8148734,22.2922585 Z" id="Path" fill="#FFFFFF"></path>
                <path d="M49.3101266,9.69300426 C49.0553785,9.30770404 48.5569657,9.10404841 47.8148734,9.08203125 L47.8148734,7.10049716 C49.3655141,7.23260009 50.6281597,7.72247445 51.6028481,8.57013494 C52.5332325,9.3847697 52.9984177,10.35351 52.9984177,11.4763849 C52.9984177,12.1809339 52.8378181,12.7203461 52.5166139,13.0946378 C51.9295857,13.7771696 51.2041182,14.1184304 50.3401899,14.1184304 C49.5537935,14.1184304 48.9113949,13.8872537 48.4129747,13.4248935 C47.9699345,13.0285847 47.7484177,12.5497187 47.7484177,11.9882812 C47.7484177,11.0085178 48.2689821,10.2434331 49.3101266,9.69300426 Z" id="Path" fill="#FFFFFF"></path>
                <path d="M30.2539557,15.7036577 C30.2539557,11.7735954 29.5783295,9.56640867 28.227057,9.08203125 L28.227057,7.10049716 C30.4201059,7.2766344 32.2365434,8.19583686 33.6764241,9.8581321 C35.1163047,11.5094188 35.8362342,13.4744204 35.8362342,15.753196 C35.8362342,18.0760059 35.1163047,20.0355034 33.6764241,21.6317472 C32.2476194,23.2169824 30.4311819,24.0976554 28.227057,24.2737926 L28.227057,22.2922585 C28.9580733,22.0170441 29.4786377,21.3372746 29.7887658,20.2529297 C30.098894,19.1685848 30.2539557,17.6521759 30.2539557,15.7036577 Z" id="Path" fill="#FFFFFF"></path>
                <path d="M26.7484177,9.08203125 C25.4082211,9.56640867 24.7381329,11.7735954 24.7381329,15.7036577 C24.7381329,17.6411674 24.8904257,19.152072 25.1950158,20.2364169 C25.499606,21.3207618 26.0174014,22.0060355 26.7484177,22.2922585 L26.7484177,24.2737926 C24.5442928,24.0976554 22.7278552,23.2169824 21.2990506,21.6317472 C19.85917,20.0355034 19.1392405,18.0760059 19.1392405,15.753196 C19.1392405,13.4744204 19.85917,11.5094188 21.2990506,9.8581321 C22.7721593,8.19583686 24.5885968,7.2766344 26.7484177,7.10049716 L26.7484177,9.08203125 Z" id="Path" fill="#F9F6F8"></path>
                <path d="M7.89161392,24.0261009 L0,24.0261009 L0,22.8041548 C0.299052128,22.6830605 0.589792892,22.5922411 0.872231013,22.5316939 C1.15466913,22.4711467 1.40664446,22.3858315 1.62816456,22.2757457 C2.12658477,22.033557 2.37579114,21.5712037 2.37579114,20.8886719 L2.37579114,3.7318892 C2.37579114,3.03834881 2.12658477,2.57049127 1.62816456,2.32830256 C1.40664446,2.21821678 1.15466913,2.13290158 0.872231013,2.0723544 C0.589792892,2.01180723 0.299052128,1.92098782 0,1.79989347 L0,0.561434659 L10.3837025,0.561434659 L10.3837025,1.79989347 C10.0514224,1.92098782 9.73576099,2.01180723 9.43670886,2.0723544 C9.13765673,2.13290158 8.87737453,2.21821678 8.65585443,2.32830256 C8.14635821,2.57049127 7.89161392,3.03834881 7.89161392,3.7318892 L7.89161392,24.0261009 Z" id="Path" fill="#F9F6F8"></path>
                <path d="M9.38686709,22.4243608 C9.45332312,22.4353694 9.52531607,22.4408736 9.6028481,22.4408736 L9.83544304,22.4408736 C12.3386201,22.4408736 14.0276855,21.5051585 14.9026899,19.6337003 C15.135286,19.1273057 15.33742,18.629175 15.5090981,18.1392933 C15.6807762,17.6494116 15.8524517,17.1953146 16.0241297,16.7769886 C16.1958078,16.3586627 16.4256315,16.0339145 16.7136076,15.8027344 L17.8433544,15.8027344 L17.8433544,24.0261009 L9.38686709,24.0261009 L9.38686709,22.4243608 Z" id="Path" fill="#FFFFFF"></path>
            </g>
        </g>
    </g>
</svg>