<?xml version="1.0" encoding="UTF-8"?>
<svg width="90px" height="25px" viewBox="0 0 90 25" version="1.1" xmlns="http://www.w3.org/2000/svg" xmlns:xlink="http://www.w3.org/1999/xlink">
    <!-- Generator: Sketch 41.2 (35397) - http://www.bohemiancoding.com/sketch -->
    <title>Group 6</title>
    <desc>Created with Sketch.</desc>
    <defs></defs>
    <g id="Page-1" stroke="none" stroke-width="1" fill="none" fill-rule="evenodd">
        <g id="A4" transform="translate(-56.000000, -51.000000)">
            <g id="Group-6" transform="translate(56.000000, 51.000000)">
                <path d="M78.8078521,22.878196 C78.8078521,23.1534105 78.9524808,23.2910156 79.2417425,23.2910156 C79.5310042,23.2910156 79.7846607,23.2111159 80.0027195,23.0513139 C80.2207784,22.891512 80.4277087,22.6695682 80.6235166,22.3854759 C80.95283,21.8883143 81.3266395,21.0893166 81.7449565,19.9884588 L85.8168513,9.32173295 C86.0660614,8.68252521 86.1906646,8.26083199 86.1906646,8.05664063 C86.1906646,7.85244926 86.1372632,7.6970886 86.0304589,7.59055398 C85.9236545,7.48401935 85.7879261,7.39746127 85.6232694,7.33087713 C85.4586127,7.26429299 85.2806082,7.2065876 85.0892504,7.15775923 C84.8978926,7.10893086 84.717663,7.04900604 84.5485562,6.97798295 L84.5485562,5.99254261 L89.5149328,5.99254261 L89.5149328,6.6184304 C89.5149328,6.83149964 89.445956,6.98242143 89.3080004,7.07120028 C89.1700448,7.15997914 89.0076156,7.24653722 88.8207081,7.33087713 C88.6338005,7.41521704 88.4424456,7.52840838 88.2466377,7.67045455 C88.0508297,7.81250071 87.8950757,8.03888339 87.779371,8.34960938 L82.9598497,20.8673651 C82.4436287,22.2079257 81.8384133,23.2266478 81.1441851,23.9235618 C80.449957,24.6204758 79.5866349,24.9689276 78.554193,24.9689276 C77.6018544,24.9689276 76.8542353,24.6937172 76.3113133,24.1432884 C75.8217934,23.628371 75.5770372,23.0069284 75.5770372,22.2789418 C75.5770372,21.3201301 75.9730973,20.6631765 76.7652294,20.3080611 C77.0233399,20.2015265 77.2925718,20.1482599 77.5729331,20.1482599 C77.8532945,20.1482599 78.0958257,20.1904293 78.300534,20.2747692 C78.5052423,20.3591091 78.687697,20.4678616 78.8479035,20.6010298 C79.1683165,20.894 79.3285206,21.1891853 79.3285206,21.4865945 C79.3285206,21.7840036 79.3018199,22.003728 79.2484177,22.1457741 C79.1950156,22.2878203 79.134939,22.4054505 79.0681863,22.4986683 C79.0014336,22.5918861 78.9413571,22.6651276 78.8879549,22.7183949 C78.8345527,22.7716622 78.8078521,22.8249287 78.8078521,22.878196 Z" id="Path" fill="#FFBD78"></path>
                <path d="M81.0907832,18.3771307 L76.978837,8.62926136 C76.6317229,7.84800746 76.1466606,7.36860884 75.5236353,7.19105114 C75.3634288,7.14666171 75.2121249,7.08451744 75.0697191,7.00461648 L75.0697191,5.99254261 L82.6794897,5.99254261 L82.6794897,6.97798295 C82.563785,7.07563969 82.4258315,7.1400034 82.265625,7.17107599 C82.1054185,7.20214859 81.9496645,7.23987904 81.7983584,7.28426847 C81.4334436,7.40855886 81.2509889,7.66601367 81.2509889,8.05664063 C81.2509889,8.30522141 81.3399912,8.64257599 81.5179984,9.06871449 L83.1200554,13.0371094 L81.0907832,18.3771307 Z" id="Path" fill="#E9A45B"></path>
                <path d="M73.2273536,17.1386719 C73.2273536,17.6003219 73.4409591,17.9154821 73.8681764,18.0841619 C74.0461836,18.155185 74.2375385,18.2173293 74.4422468,18.2705966 C74.6469551,18.3238639 74.83831,18.4082025 75.0163172,18.5236151 L75.0163172,19.3758878 L67.5,19.3758878 L67.5,18.5236151 C67.6691069,18.4082025 67.8560116,18.3238639 68.0607199,18.2705966 C68.2654282,18.2173293 68.4567831,18.155185 68.6347903,18.0841619 C69.0531073,17.9154821 69.2622627,17.6003219 69.2622627,17.1386719 L69.2622627,2.31711648 C69.2622627,1.84658856 69.0531073,1.5225506 68.6347903,1.3449929 C68.4567831,1.27396982 68.2654282,1.21404499 68.0607199,1.16521662 C67.8560116,1.11638825 67.6691069,1.03426904 67.5,0.918856534 L67.5,0 L73.2273536,0 L73.2273536,17.1386719 Z" id="Path" fill="#FFBD78"></path>
                <path d="M64.6696994,17.1386719 C64.6696994,17.6003219 64.8833048,17.9154821 65.3105222,18.0841619 C65.4885294,18.155185 65.6798843,18.2173293 65.8845926,18.2705966 C66.0893009,18.3238639 66.2806558,18.4082025 66.458663,18.5236151 L66.458663,19.3758878 L58.9423457,19.3758878 L58.9423457,18.5236151 C59.1114526,18.4082025 59.2983574,18.3238639 59.5030657,18.2705966 C59.707774,18.2173293 59.8991289,18.155185 60.0771361,18.0841619 C60.495453,17.9154821 60.7046084,17.6003219 60.7046084,17.1386719 L60.7046084,2.31711648 C60.7046084,1.84658856 60.495453,1.5225506 60.0771361,1.3449929 C59.8991289,1.27396982 59.707774,1.21404499 59.5030657,1.16521662 C59.2983574,1.11638825 59.1114526,1.03426904 58.9423457,0.918856534 L58.9423457,0 L64.6696994,0 L64.6696994,17.1386719 Z" id="Path" fill="#E9A45B"></path>
                <path d="M47.8214003,8.17649148 C48.4266249,8.45170592 48.7292326,8.86008252 48.7292326,9.40163352 C48.7292326,10.0852307 48.3331725,10.5335572 47.5410403,10.7466264 C47.3185313,10.7998937 47.0960256,10.826527 46.8735166,10.826527 C46.2237903,10.826527 45.7298276,10.6445331 45.3916139,10.2805398 C45.0534002,9.91654648 44.8842959,9.48375606 44.8842959,8.98215554 C44.8842959,8.48055502 44.9821984,8.04998404 45.1780063,7.69042969 C45.3738143,7.33087533 45.6630717,7.00905682 46.0457872,6.72496449 C46.8735208,6.13014617 47.9904993,5.79723047 49.3967563,5.72620739 L49.3967563,7.32421875 C48.6936278,7.36860818 48.1685144,7.65269624 47.8214003,8.17649148 Z" id="Path" fill="#E9A45B"></path>
                <path d="M50.6383505,18.9364347 C50.1310299,19.3625732 49.4657379,19.5756392 48.6424545,19.5756392 C47.8191711,19.5756392 47.1360787,19.4979589 46.5931566,19.3425959 C46.0502346,19.1872329 45.5829727,18.9586308 45.1913568,18.6567827 C44.3458225,17.9998192 43.9230617,17.0987273 43.9230617,15.9534801 C43.9230617,14.6395531 44.5371774,13.6008561 45.7654272,12.837358 C46.6465629,12.2869291 48.2708545,11.6921197 50.6383505,11.0529119 L50.6383505,12.4644886 C49.0540862,13.0859406 48.261966,14.1779041 48.261966,15.7404119 C48.261966,16.7613687 48.5022721,17.4493945 48.9828916,17.8045099 C49.1519985,17.9199225 49.3967547,17.9776278 49.7171677,17.9776278 C50.0375807,17.9776278 50.3446386,17.8755337 50.6383505,17.6713423 L50.6383505,18.9364347 Z" id="Path" fill="#E9A45B"></path>
                <path d="M54.8704509,19.5756392 C53.5264964,19.5756392 52.5118705,19.2693568 51.8265427,18.6567827 L51.8265427,10.7466264 C51.8265427,9.6102571 51.7775915,8.87340368 51.6796875,8.53604403 C51.5016803,7.86132475 51.136771,7.45738703 50.5849486,7.32421875 L50.5849486,5.72620739 C54.0649897,5.85049778 55.8049842,7.41298216 55.8049842,10.4137074 L55.8049842,16.3796165 C55.8049842,17.4449627 56.0541905,17.9776278 56.5526108,17.9776278 C56.9620274,17.9776278 57.2112337,17.436085 57.3002373,16.352983 L58.2614715,16.5926847 C58.0389625,18.0930473 57.3847958,19.0207724 56.2989517,19.3758878 C55.9073359,19.5090561 55.4311737,19.5756392 54.8704509,19.5756392 Z" id="Path" fill="#FFBD78"></path>
                <path d="M37.2344739,19.5756392 C35.240793,19.5578834 33.5987011,18.892052 32.3081487,17.578125 C31.0798989,16.3174653 30.4657832,14.7372254 30.4657832,12.837358 C30.4657832,10.8132001 31.0620985,9.14862158 32.2547468,7.84357244 C33.491897,6.50301176 35.1517894,5.79723047 37.2344739,5.72620739 L37.2344739,7.32421875 C36.4512421,7.537288 35.8504768,8.09658638 35.4321598,9.00213068 C35.0138428,9.90767498 34.8046875,11.1017326 34.8046875,12.5843395 C34.8046875,14.786055 35.2452488,16.3574172 36.1263845,17.298473 C36.4378971,17.6180769 36.8072566,17.8444596 37.2344739,17.9776278 L37.2344739,19.5756392 Z" id="Path" fill="#E9A45B"></path>
                <path d="M38.4226661,17.9776278 C39.7043181,17.9509942 40.6121413,17.3695014 41.146163,16.2331321 C41.3152698,15.8780167 41.4532234,15.4918345 41.5600277,15.0745739 L42.8016218,15.6338778 C42.2497995,17.9953953 40.7901622,19.3093026 38.4226661,19.5756392 L38.4226661,17.9776278 Z" id="Path" fill="#FFBD78"></path>
                <path d="M39.6242089,7.81693892 C39.4195006,7.50621294 39.0189903,7.34197452 38.4226661,7.32421875 L38.4226661,5.72620739 C39.6687167,5.83274201 40.6833426,6.22780198 41.4665744,6.91139915 C42.2142047,7.56836266 42.5880142,8.34960485 42.5880142,9.25514915 C42.5880142,9.82333381 42.4589609,10.2583437 42.2008505,10.5601918 C41.7291313,11.1106206 41.1461664,11.385831 40.4519383,11.385831 C39.8200127,11.385831 39.3037995,11.1993982 38.9032832,10.826527 C38.5472688,10.5069231 38.3692642,10.1207409 38.3692642,9.66796875 C38.3692642,8.87783696 38.7875749,8.26083319 39.6242089,7.81693892 Z" id="Path" fill="#FFBD78"></path>
                <path d="M24.3112144,12.6642401 C24.3112144,9.49483501 23.7683005,7.7148457 22.6824565,7.32421875 L22.6824565,5.72620739 C24.444728,5.86825355 25.9043653,6.60954585 27.0614122,7.95010653 C28.2184591,9.28178933 28.7969739,10.8664681 28.7969739,12.7041903 C28.7969739,14.5774241 28.2184591,16.157664 27.0614122,17.4449574 C25.9132656,18.7233729 24.4536283,19.433593 22.6824565,19.5756392 L22.6824565,17.9776278 C23.2698803,17.7556807 23.688191,17.2074795 23.9374011,16.3330078 C24.1866112,15.4585361 24.3112144,14.2356258 24.3112144,12.6642401 Z" id="Path" fill="#FFBD78"></path>
                <path d="M21.4942642,7.32421875 C20.4173206,7.7148457 19.8788568,9.49483501 19.8788568,12.6642401 C19.8788568,14.2267479 20.0012349,15.4452193 20.2459949,16.3196911 C20.4907548,17.1941628 20.9068404,17.7468028 21.4942642,17.9776278 L21.4942642,19.5756392 C19.7230924,19.433593 18.2634551,18.7233729 17.1153085,17.4449574 C15.9582616,16.157664 15.3797468,14.5774241 15.3797468,12.7041903 C15.3797468,10.8664681 15.9582616,9.28178933 17.1153085,7.95010653 C18.2990566,6.60954585 19.7586939,5.86825355 21.4942642,5.72620739 L21.4942642,7.32421875 Z" id="Path" fill="#E9A45B"></path>
                <path d="M6.34147547,19.3758878 L0,19.3758878 L0,18.3904474 C0.240309746,18.2927907 0.473940716,18.2195492 0.700899921,18.1707209 C0.927859125,18.1218925 1.1303393,18.0530899 1.30834652,17.9643111 C1.70886276,17.7689976 1.90911788,17.396132 1.90911788,16.8457031 L1.90911788,3.00958807 C1.90911788,2.45028129 1.70886276,2.07297683 1.30834652,1.87766335 C1.1303393,1.7888845 0.927859125,1.72008192 0.700899921,1.67125355 C0.473940716,1.62242518 0.240309746,1.54918373 0,1.45152699 L0,0.452769886 L8.34404668,0.452769886 L8.34404668,1.45152699 C8.07703585,1.54918373 7.82337937,1.62242518 7.58306962,1.67125355 C7.34275987,1.72008192 7.13360453,1.7888845 6.95559731,1.87766335 C6.54618071,2.07297683 6.34147547,2.45028129 6.34147547,3.00958807 L6.34147547,19.3758878 Z" id="Path" fill="#E9A45B"></path>
                <path d="M7.5430182,18.0841619 C7.59642036,18.0930398 7.65427184,18.0974787 7.71657437,18.0974787 L7.90348101,18.0974787 C9.91496259,18.0974787 11.2722473,17.3428698 11.9753758,15.8336293 C12.1622834,15.4252465 12.3247125,15.0235283 12.4626681,14.6284624 C12.6006237,14.2333965 12.7385772,13.8671892 12.8765328,13.5298295 C13.0144884,13.1924699 13.1991681,12.9305762 13.4305775,12.7441406 L14.3384098,12.7441406 L14.3384098,19.3758878 L7.5430182,19.3758878 L7.5430182,18.0841619 Z" id="Path" fill="#FFBD78"></path>
            </g>
        </g>
    </g>
</svg>